<?xml version="1.0" encoding="UTF-8" standalone="no"?>
<!-- Created with Inkscape (http://www.inkscape.org/) -->

<svg
   version="1.1"
   id="svg1"
   width="1365.3333"
   height="1365.3333"
   viewBox="0 0 1365.3333 1365.3333"
   sodipodi:docname="csvtree-logo.svg"
   inkscape:version="1.4.1 (93de688d07, 2025-03-30)"
   inkscape:export-filename="csvtree-logo.png"
   inkscape:export-xdpi="28.125002"
   inkscape:export-ydpi="28.125002"
   xmlns:inkscape="http://www.inkscape.org/namespaces/inkscape"
   xmlns:sodipodi="http://sodipodi.sourceforge.net/DTD/sodipodi-0.dtd"
   xmlns="http://www.w3.org/2000/svg"
   xmlns:svg="http://www.w3.org/2000/svg">
  <defs
     id="defs1" />
  <sodipodi:namedview
     id="namedview1"
     pagecolor="#ffffff"
     bordercolor="#000000"
     borderopacity="0.25"
     inkscape:showpageshadow="2"
     inkscape:pageopacity="0.0"
     inkscape:pagecheckerboard="0"
     inkscape:deskcolor="#d1d1d1"
     inkscape:zoom="0.33087674"
     inkscape:cx="761.61292"
     inkscape:cy="652.81107"
     inkscape:window-width="1463"
     inkscape:window-height="795"
     inkscape:window-x="0"
     inkscape:window-y="0"
     inkscape:window-maximized="1"
     inkscape:current-layer="g1" />
  <g
     inkscape:groupmode="layer"
     inkscape:label="Logo"
     id="g1">
    <path
       id="path31"
       style="fill:#11d44d;fill-opacity:1"
       d="m 475.23623,954.22775 c -0.37403,-0.9747 -0.5052,-7.1247 -0.29149,-13.66666 l 0.38857,-11.89448 43.66666,-0.35155 43.66666,-0.35155 v -6.61697 -6.61696 l -23,-0.36482 -22.99999,-0.36481 -0.37998,-13.66667 -0.37998,-13.66667 26.37998,-0.0208 c 29.80275,-0.0235 38.08663,-1.35966 47.95855,-7.73535 7.44721,-4.80972 12.75887,-11.10136 16.85228,-19.96148 2.83897,-6.14489 2.91082,-7.72262 3.28387,-72.10913 0.42315,-73.0337 0.2566,-74.80298 -8.05956,-85.61492 -2.37701,-3.09039 -7.62184,-7.48025 -11.65517,-9.75525 l -7.33333,-4.13637 -59.33333,-0.68571 c -58.10165,-0.67148 -59.49287,-0.74973 -67.01885,-3.76952 -4.22703,-1.69609 -10.73733,-5.13752 -14.46732,-7.64762 l -6.7818,-4.56381 h -38.98532 -38.98533 l -1.48615,3.26175 c -7.54292,16.55491 -31.7249,24.91463 -48.6232,16.80906 -8.59206,-4.12134 -17.76793,-14.56408 -20.3055,-23.10902 -2.51223,-8.45961 -2.53657,-13.46558 -0.10473,-21.54596 4.16093,-13.82571 14.12151,-23.07269 28.26193,-26.23718 14.15023,-3.16668 30.34544,3.70597 38.08969,16.16386 l 4.13852,6.65749 h 25.45775 25.45775 l -34.3797,-34.39879 -34.37971,-34.39879 -12.37526,0.0655 c -11.49898,0.0608 -12.83714,-0.21981 -18.89797,-3.96312 -24.14028,-14.9096 -22.61898,-49.3134 2.68895,-60.80998 7.16748,-3.25596 20.90151,-3.256 28.02959,-9e-5 12.74495,5.82154 21.89287,22.19698 20.06058,35.90988 l -0.83673,6.2621 50.38807,50.28555 c 39.96799,39.88666 51.76672,50.91582 57.05474,53.33333 6.53494,2.98756 7.81272,3.06134 64.66667,3.73425 55.31656,0.6547 58.32354,0.8183 64.99318,3.53598 11.48922,4.68151 18.2062,9.2223 25.8066,17.44571 14.25342,15.42178 18.48438,29.28557 18.51383,60.66517 l 0.0197,21 h 14 14 l -0.0305,-38.33333 -0.0305,-38.33333 -58.96949,-59.61592 c -32.43323,-32.78875 -61.0695,-60.67751 -63.63617,-61.97502 -3.88589,-1.9644 -9.57442,-2.47974 -34,-3.08016 -27.40143,-0.67357 -29.72849,-0.92664 -35.33333,-3.84241 -3.55447,-1.84912 -16.32556,-13.3452 -31.33333,-28.20514 l -25.33333,-25.0838 -8.8424,0.73779 c -7.53826,0.62898 -9.89924,0.25395 -16.00811,-2.54278 -14.10509,-6.45753 -20.51113,-16.19406 -20.43505,-31.05922 0.0543,-10.60976 2.19613,-15.83128 9.71145,-23.67524 5.21552,-5.4436 16.28394,-10.32476 23.41222,-10.32476 6.53547,0 16.337,3.30858 21.52561,7.26612 9.25075,7.05589 15.09499,22.58319 12.60092,33.47881 l -1.20291,5.25507 22.95246,23.08565 c 12.62386,12.69711 24.15247,23.79711 25.61914,24.66667 1.7194,1.0194 12.61289,1.81783 30.66666,2.24768 l 28,0.66666 9.33333,4.40676 c 8.61205,4.06621 13.2486,8.31661 59.99663,55 27.86481,27.82628 50.81481,50.59324 51,50.59324 0.18518,0 0.30868,-12.45 0.27443,-27.66667 l -0.0623,-27.66666 -39.6044,-40.20404 c -24.85419,-25.2306 -41.59068,-41.18102 -44.93768,-42.82717 -3.29854,-1.6223 -9.21272,-2.86294 -15.50146,-3.25178 -7.36444,-0.45534 -11.48706,-1.44385 -14.95153,-3.58501 -8.22044,-5.08051 -95.75871,-95.32686 -99.88034,-102.97023 -3.59645,-6.66947 -3.66666,-7.2411 -3.66666,-29.85404 V 341.5867 l -5.85548,-3.43154 c -6.56971,-3.8501 -13.43341,-13.24362 -15.64368,-21.40962 -2.01018,-7.42674 -0.7603,-20.36976 2.60385,-26.96404 13.0108,-25.50328 47.78045,-27.40044 62.97804,-3.43632 5.48888,8.65506 7.3609,18.27847 5.4316,27.92195 -1.8054,9.0242 -8.52404,19.54354 -15.4807,24.23805 l -4.7003,3.17187 0.0149,20.16146 0.0149,20.16147 33.98505,34.10184 33.98505,34.10183 -6.5e-4,-20.10184 -6.5e-4,-20.10183 -6.685,-5.757 c -3.67675,-3.16634 -7.84424,-8.0293 -9.26109,-10.80656 -12.38955,-24.28552 7.23582,-52.8973 34.5824,-50.4176 18.51016,1.67844 30.65709,15.33369 30.6853,34.49557 0.017,11.52599 -4.71809,21.13186 -13.71167,27.81644 l -6.2753,4.66419 v 30.77348 30.77348 l 7,1.61071 c 14.14614,3.25505 17.70078,5.98962 51.99999,40.00343 l 33,32.72541 V 457.93282 369.9841 L 626.0765,328.07649 c -40.81997,-40.80454 -42.01487,-41.86598 -45.39607,-40.3254 -6.17812,2.81494 -18.0708,1.95733 -25.72071,-1.85478 -7.46681,-3.72086 -12.10945,-8.4792 -16.65925,-17.07437 -4.08396,-7.71515 -4.10043,-23.23194 -0.0328,-30.91291 3.41982,-6.45773 12.2714,-14.76804 18.50341,-17.37194 5.9156,-2.47169 20.33971,-2.38445 26.42911,0.15987 6.55684,2.73962 15.02601,10.5984 18.54894,17.21207 2.29321,4.30509 2.88819,7.69196 2.88364,16.41469 l -0.006,10.99041 31.68648,31.66584 31.68647,31.66584 v -48.95534 -48.95534 l -3.82661,-1.97881 c -6.6957,-3.46248 -15.5518,-14.60737 -18.13594,-22.82302 -9.48165,-30.14462 19.52343,-59.20487 49.05063,-49.14394 8.55861,2.91621 18.49838,12.18455 22.34763,20.83805 4.29644,9.65882 4.34998,23.08484 0.12908,32.37258 -3.30885,7.28085 -10.79605,15.78324 -16.56479,18.8108 l -3.66667,1.92434 v 48.95534 48.95534 l 31.69182,-31.67118 31.69182,-31.67119 -0.49568,-9.81596 c -0.38501,-7.6244 0.0832,-11.11888 2.09729,-15.65173 6.1128,-13.75749 17.46003,-21.18947 32.27654,-21.13981 14.58304,0.0489 25.13542,6.39549 31.55584,18.97895 4.48786,8.79583 5.27924,16.34949 2.65768,25.36735 -5.70915,19.6388 -24.46989,30.40843 -43.47608,24.95752 l -4.64983,-1.33355 -41.6747,41.65895 -41.6747,41.65894 v 87.9476 87.94759 l 32.33333,-32.11203 c 33.98365,-33.75105 39.90043,-38.26991 52.34157,-39.97516 l 5.99176,-0.82126 v -31.66542 c 0,-31.36244 -0.0287,-31.68437 -3,-33.64616 -18.28149,-12.07033 -22.1046,-36.54261 -8.23932,-52.74107 6.16053,-7.19719 13.65691,-11.0276 23.29159,-11.90124 14.76767,-1.33908 27.565,5.81782 34.02965,19.03109 7.54497,15.42137 3.27696,33.15186 -10.41525,43.26784 l -6.33334,4.67914 v 19.66914 c 0,10.81803 0.44568,19.66915 0.99039,19.66915 0.54471,0 16.14471,-15.14559 34.66666,-33.65686 l 33.67628,-33.65686 v -20.16596 -20.16595 l -5.22545,-3.45805 c -23.06164,-15.26146 -21.08577,-50.01917 3.67073,-64.57238 5.39665,-3.17244 7.63542,-3.65421 16.88806,-3.63419 12.86173,0.0278 18.91475,2.72937 27.19681,12.13829 15.42556,17.52436 10.98792,44.13707 -9.53015,57.15271 l -3.66666,2.32595 -0.0293,22.84665 c -0.0257,20.05754 -0.3596,23.57913 -2.73505,28.84665 -3.58013,7.93887 -96.56413,101.70389 -104.56899,105.44732 -2.93333,1.37176 -8.03333,2.51063 -11.33333,2.53083 -13.89648,0.085 -13.56294,-0.16908 -58.33333,44.44448 l -41.66667,41.5207 0.003,28.69499 0.003,28.695 50.99672,-51.66344 c 47.85122,-48.47682 51.5724,-51.93007 60.33005,-55.98624 l 9.33333,-4.3228 28,-0.68464 c 17.96806,-0.43934 28.95542,-1.24952 30.66666,-2.26127 1.46667,-0.86715 12.81374,-11.76888 25.21571,-24.22607 l 22.54904,-22.64943 0.11763,-11.76972 c 0.10336,-10.34235 0.5659,-12.5323 3.81402,-18.05787 9.57998,-16.29708 30.45517,-21.77228 46.10975,-12.09379 19.47854,12.04265 22.76728,37.20934 6.95712,53.23859 -6.91992,7.01581 -12.73967,9.14178 -25.06415,9.15603 l -10.96755,0.0127 -25.70994,25.58727 c -16.50081,16.42208 -27.61642,26.42863 -31.03245,27.93617 -4.35445,1.92169 -10.65807,2.47946 -34.65805,3.06672 -28.32024,0.69297 -29.52471,0.83318 -34.80152,4.05115 -3.00629,1.83333 -31.65529,29.80672 -63.66445,62.16308 l -58.19848,58.82975 v 38.17025 38.17024 h 14 14 l 0.0231,-20.33333 c 0.0145,-12.73634 0.75854,-23.82048 1.99141,-29.66667 4.91448,-23.30408 19.88305,-40.85712 41.95299,-49.19662 6.94064,-2.62263 10.71348,-2.82233 65.36578,-3.45999 l 57.99999,-0.67672 7.33334,-3.62393 c 5.87865,-2.90507 17.11446,-13.41488 56.64193,-52.98202 l 49.30858,-49.35809 0.061,-10.35131 c 0.069,-11.64916 2.6548,-18.14637 10.2402,-25.73176 6.3337,-6.33373 13.6543,-9.22266 23.4572,-9.25693 13.8309,-0.0484 23.8335,5.75309 30.3998,17.63161 5.0506,9.13657 5.4417,22.58324 0.9069,31.17672 -3.9571,7.49869 -13.7125,15.78415 -20.9802,17.81899 -5.2353,1.46578 -16.9462,1.39068 -21.6184,-0.13863 -1.2347,-0.40414 -71.08418,67.48479 -71.08418,69.08896 0,0.21618 11.25,0.37409 24.99999,0.35091 l 24.99999,-0.0421 3.5637,-5.87493 c 4.5074,-7.43066 12.8421,-13.50285 22.3131,-16.25614 13.6381,-3.96471 30.6043,1.79387 38.8592,13.18937 4.3217,5.96599 7.9306,16.44415 7.9306,23.02599 0,17.457 -15.3659,34.62969 -33.3747,37.29887 -13.2014,1.95666 -28.6959,-5.22451 -36.1742,-16.76545 l -4.2335,-6.53342 h -38.6374 -38.63743 l -7.23293,4.80094 c -15.85438,10.52354 -15.33979,10.45243 -81.04308,11.19906 -57.99699,0.65905 -58.73829,0.70194 -64.9414,3.75724 -7.37111,3.63058 -13.66822,10.37794 -17.58439,18.84168 -2.71532,5.86843 -2.82009,8.21007 -3.18951,71.2888 -0.25332,43.25388 0.10613,67.57226 1.06723,72.20184 2.68419,12.92965 15.73667,27.05244 29.07258,31.45654 2.92651,0.96646 17.02359,1.92386 34.90882,2.37083 l 30,0.74972 v 13.33333 13.33334 h -22.66667 -22.66666 l -0.66667,6.66666 -0.66666,6.66667 42.66666,0.66666 42.66666,0.66667 0.37998,13.66667 L 889.42521,956 H 682.67142 c -170.74005,0 -206.8736,-0.3087 -207.43519,-1.77219 z m 298.09706,-33.56114 v -7.33333 h -90.66666 -90.66667 v 7.33333 7.33333 h 90.66667 90.66666 z m -39.40765,-44.33333 c -3.81386,-8.67107 -7.19541,-20.5286 -7.22459,-25.33333 l -0.0344,-5.66667 H 683.39371 640.1208 l -0.85826,5 c -1.29823,7.5632 -4.10128,16.84258 -6.47329,21.42954 -1.16744,2.25759 -2.12262,4.7345 -2.12262,5.50425 0,0.95331 16.62517,1.39954 52.14265,1.39954 49.16174,0 52.08398,-0.13339 51.11636,-2.33333 z m -8.59235,-72.33333 v -13.33333 h -42.66666 -42.66667 v 13.33333 13.33333 h 42.66667 42.66666 z M 482.78074,641.21931 c -17.01697,-3.33969 -27.46891,-21.02121 -22.79506,-38.56237 1.11001,-4.16591 3.48995,-7.82532 7.8144,-12.01548 12.89426,-12.49382 30.39004,-12.49677 42.93454,-0.007 16.99151,16.91706 8.74335,45.24088 -14.73465,50.59813 -3.3,0.753 -6.3,1.31802 -6.66667,1.2556 -0.36666,-0.0624 -3.31532,-0.63331 -6.55256,-1.26864 z m 384.97995,-0.41267 c -8.75221,-2.35665 -15.48634,-7.95565 -19.22453,-15.98397 -5.75208,-12.35345 -3.58484,-24.51454 6.09355,-34.19294 6.2167,-6.2167 13.29626,-9.29643 21.37024,-9.29643 8.07398,0 15.15353,3.07973 21.37023,9.29643 9.86987,9.86987 11.9357,22.21699 5.78299,34.56388 -4.22915,8.4868 -11.40026,14.06646 -20.6197,16.04368 -7.80326,1.6735 -6.85574,1.70112 -14.77278,-0.43065 z M 347.84302,426.1592 c -15.63875,-5.58851 -24.97973,-18.65842 -25.11785,-35.14492 -0.12133,-14.48252 7.61196,-27.30935 20.2819,-33.64059 9.33156,-4.66304 18.19176,-5.28727 27.93327,-1.96801 25.03291,8.52957 32.38904,42.76058 13.38153,62.26954 -8.68122,8.91025 -24.79727,12.6584 -36.47885,8.48398 z m 646.78276,-0.12664 c -16.90269,-5.43582 -27.39327,-24.03669 -23.81475,-42.22597 6.71908,-34.1524 50.56917,-41.69667 67.25697,-11.57135 3.4943,6.30805 3.9302,8.35948 3.9159,18.4314 -0.018,12.67656 -2.2189,18.42209 -10.1291,26.4403 -9.3266,9.45401 -24.3706,13.06081 -37.22902,8.92562 z"
       inkscape:label="Tree" />
    <path
       id="path9"
       style="fill:#008ae5;fill-opacity:1"
       d="m 952.66661,1175.9028 c -23.34475,-3.9176 -39.61551,-17.635 -46.33514,-39.0638 -4.29493,-13.6965 -4.22148,-35.2028 0.16378,-47.9589 8.82982,-25.6846 30.47667,-39.4298 59.69338,-37.9036 20.32458,1.0617 35.79317,10.1741 44.13427,25.999 5.0892,9.6554 7.0104,18.7237 7.0104,33.0901 v 11.2677 h -40.66669 -40.66667 l 0.007,3 c 0.0292,11.794 8.54177,22.4196 19.9151,24.8588 9.87555,2.1179 19.48678,-0.216 25.02701,-6.0773 l 4.28288,-4.5311 16.13007,0.3748 16.1301,0.3748 -4.7875,9.5647 c -2.6332,5.2606 -6.9906,11.4991 -9.6832,13.8632 -7.04141,6.1824 -19.57964,11.6247 -30.35523,13.1758 -10.50272,1.5118 -10.7903,1.5113 -20,-0.034 z m 32.29148,-81.3178 c -1.55949,-11.6269 -11.35279,-19.9184 -23.52614,-19.9184 -12.60281,0 -22.63122,8.2142 -24.82407,20.3333 l -0.90471,5 h 24.99061 24.99061 z m -698.82328,79.2897 c -26.99369,-6.5315 -47.49438,-27.0727 -55.09933,-55.2081 -3.67696,-13.6034 -3.27933,-41.6326 0.77485,-54.6197 4.76678,-15.2698 10.37361,-25.1445 19.40513,-34.176 27.14064,-27.1407 76.99766,-29.3725 104.96554,-4.6988 10.10433,8.9142 16.51256,20.9852 19.0202,35.8278 l 0.73211,4.3334 h -17.02346 -17.02346 l -1.54283,-5.6667 c -4.54751,-16.7025 -25.01786,-26.3909 -44.3896,-21.0092 -12.25695,3.4051 -24.31312,15.3731 -28.76525,28.555 -5.32581,15.7686 -4.68899,38.8057 1.44724,52.3544 4.19007,9.2516 13.21925,18.8125 21.36403,22.6221 8.14446,3.8095 21.08079,4.2043 30.67249,0.9361 8.18239,-2.788 17.24207,-11.6387 19.44713,-18.9986 l 1.63581,-5.4598 h 17.08895 17.08895 l -0.80519,4.3333 c -5.99393,32.2577 -33.58942,53.1611 -69.7948,52.8692 -6.23334,-0.05 -14.87266,-0.9477 -19.19851,-1.9944 z m 147.90287,0.7033 c -9.09828,-1.5211 -17.46072,-4.8259 -25.40022,-10.0379 -10.02156,-6.5789 -16.32619,-16.331 -19.13987,-29.6058 -2.50687,-11.8272 -3.61971,-11.0608 15.44964,-10.6409 l 16.94726,0.3732 0.84485,4.1403 c 1.28883,6.3159 5.23843,10.8411 12.72591,14.5803 5.61503,2.8042 8.71209,3.3995 17.78985,3.4194 17.7381,0.039 28.44184,-6.9827 28.44184,-18.658 0,-11.3626 -5.47295,-14.7517 -37.04368,-22.9391 -32.94973,-8.545 -45.5646,-16.5556 -50.77511,-32.243 -1.21633,-3.662 -2.21151,-10.3661 -2.21151,-14.8979 0,-29.3128 20.3654,-47.4857 55.66965,-49.6763 15.83383,-0.9824 29.12964,1.3526 40.72089,7.1514 13.62378,6.8157 21.26753,17.4681 23.70976,33.0421 l 1.16266,7.4141 h -16.41342 -16.41342 l -1.42641,-5.2972 c -3.53119,-13.1139 -26.40455,-19.004 -42.30256,-10.8935 -10.67739,5.4472 -13.7284,17.8475 -6.29918,25.602 3.98615,4.1606 8.09208,5.6324 40.34076,14.4598 8.29513,2.2707 18.25315,5.6286 22.12893,7.4622 17.89285,8.4646 27.21776,26.9262 23.56928,46.6626 -3.91453,21.1756 -18.66154,35.0069 -42.77578,40.1194 -9.42755,1.9988 -28.75172,2.2264 -39.30012,0.4628 z m 640.29012,0.042 c -13.0134,-3.2437 -26.1729,-12.8787 -33.776,-24.7296 -6.8015,-10.6017 -9.1412,-20.2518 -9.0248,-37.2241 0.1094,-15.9601 2.7737,-26.5825 9.2345,-36.817 11.9539,-18.9362 34.8331,-28.8475 58.2333,-25.2268 29.9886,4.6402 46.3385,25.4542 46.3385,58.9906 v 11.7199 h -40.6667 -40.6667 l 0.013,3.6666 c 0.01,2.0167 1.4531,6.7598 3.2133,10.5402 4.4088,9.4688 12.3801,14.2101 23.917,14.2256 9.0875,0.012 15.0619,-2.3968 19.2971,-7.781 2.6393,-3.3554 2.8973,-3.3968 18.864,-3.0267 l 16.1881,0.3753 -4.7876,9.5647 c -5.596,11.1801 -11.2692,16.6019 -23.3085,22.2757 -7.9079,3.7268 -10.1106,4.1414 -23.3965,4.4042 -8.0666,0.1596 -16.9191,-0.2714 -19.6721,-0.9576 z m 38.9762,-77.6204 c -0.046,-4.6633 -4.5323,-13.2573 -9.2235,-17.6666 -3.9665,-3.7282 -4.9518,-4 -14.5014,-4 -8.5997,0 -10.9469,0.5 -14.6093,3.1123 -4.6561,3.3209 -8.7206,10.1521 -10.2464,17.221 l -0.9353,4.3333 h 24.7726 24.7726 z m -515.81113,75 -23.17376,-0.6666 -10.63145,-30 c -5.8473,-16.5 -18.66911,-52.4091 -28.49291,-79.798 -9.82379,-27.3889 -17.86145,-50.0389 -17.86145,-50.3333 0,-0.2945 8.35228,-0.5354 18.56063,-0.5354 h 18.56063 l 21.74839,65.291 c 11.96162,35.91 22.11424,64.86 22.56138,64.3333 0.44715,-0.5267 2.12086,-5.1576 3.71937,-10.291 1.59851,-5.1333 10.95816,-33.9333 20.79924,-64 l 17.89286,-54.6666 18.74038,-0.3699 18.74039,-0.3699 -2.59646,7.0365 c -1.42805,3.8701 -11.06655,31.0366 -21.41888,60.3699 -22.15559,62.7779 -33.53852,94.6667 -33.79191,94.6667 -0.10048,0 -10.61088,-0.3 -23.35645,-0.6667 z m 139.8384,0.6667 c -10e-4,0 -0.0383,-29.85 -0.0826,-66.3333 l -0.0806,-66.3334 H 713.25064 689.3332 v -14.6666 -14.6667 l 65,0.01 64.99999,0.01 0.0407,14.6611 0.0407,14.661 h -24.37405 -24.37405 v 66.3334 66.3333 h -16.66666 c -9.16667,0 -16.66758,0 -16.66869,0 z m 83.99959,-60.3333 0.002,-60.3334 h 16 16 l 0.0699,11 c 0.0685,10.7711 0.11704,10.9309 2.33333,7.6787 9.12951,-13.3969 19.89128,-20.1142 32.77864,-20.46 l 8.15142,-0.2187 0.37394,17.1028 0.37394,17.1027 -3.04061,-1.1027 c -1.67233,-0.6065 -7.34042,-1.1028 -12.59577,-1.1028 -8.45905,0 -10.218,0.4609 -15.33333,4.0179 -3.37517,2.3469 -7.02579,6.4845 -8.77816,9.9492 -2.88412,5.7022 -3,7.2823 -3,40.9059 v 34.9746 l -16.6691,0.4096 -16.66909,0.4095 z"
       inkscape:label="Title" />
  </g>
</svg>
